#define dock_icon_20x20_1_width 20
#define dock_icon_20x20_1_height 20
static unsigned char dock_icon_20x20_1_bits[] = {
   0x03, 0x30, 0x0e, 0xf1, 0x78, 0x0f, 0xfc, 0xdb, 0x0d, 0xfe, 0x9b, 0x0d,
   0x0e, 0x9f, 0x0d, 0x07, 0x9e, 0x0d, 0x03, 0x1c, 0x00, 0x03, 0x0c, 0x00,
   0x03, 0xec, 0x00, 0x03, 0xfe, 0x03, 0x07, 0x36, 0x07, 0x07, 0x37, 0x0e,
   0x8f, 0x73, 0x0c, 0xfc, 0x63, 0x08, 0xf0, 0x60, 0x08, 0x00, 0x60, 0x08,
   0x03, 0x60, 0x0c, 0x07, 0x30, 0x0e, 0x1f, 0xb0, 0x07, 0x3f, 0xfc, 0x01 };
